<?xml version="1.0" encoding="UTF-8"?>
<svg version="1.1" xmlns="http://www.w3.org/2000/svg" width="318" height="249">
<path d="M0 0 C5.05766324 3.66916099 9.38184488 8.0736873 13.77358055 12.49658585 C14.83989205 13.55582463 15.90703999 14.61422193 16.97495079 15.6718483 C19.84726477 18.52183019 22.70690506 21.38420716 25.56360793 24.24982691 C27.95343872 26.64479194 30.34947863 29.03349663 32.74550945 31.42225635 C38.39281502 37.05262019 44.02985324 42.69311582 49.6602993 48.34033585 C55.47041863 54.16743942 61.29684178 59.97786579 67.13153809 65.78035176 C72.14799152 70.77015798 77.15473301 75.76955954 82.15362769 80.77695644 C85.13656801 83.76483174 88.12299061 86.74899922 91.11861801 89.72415924 C93.92804328 92.51529943 96.72515565 95.31821029 99.5130806 98.13082123 C100.53956007 99.16232809 101.5703531 100.18956229 102.6056385 101.21223068 C104.01387663 102.60465071 105.405379 104.01393721 106.79584312 105.4241066 C107.58020587 106.20905565 108.36456861 106.99400471 109.17269993 107.8027401 C110.708395 109.96484756 110.708395 109.96484756 110.52589035 112.15271473 C109.61037857 114.1821195 108.63854029 115.40292224 107.05971336 116.96997452 C106.50500862 117.52768036 105.95030388 118.0853862 105.3787899 118.65999222 C104.77470802 119.25172729 104.17062614 119.84346237 103.54823875 120.45312881 C102.92494179 121.07455261 102.30164482 121.69597641 101.65946007 122.33623123 C100.33722253 123.6517467 99.01139229 124.96365948 97.68227196 126.27222061 C95.67094111 128.25268581 93.67020107 130.24334434 91.67128563 132.23633194 C90.38088428 133.51754987 89.08988662 134.79816755 87.79823875 136.07812881 C87.20832649 136.6637912 86.61841423 137.24945358 86.01062584 137.85286331 C83.06781347 140.74665579 80.07572244 143.53681006 76.94241905 146.22388077 C72.9243392 149.72745245 69.1480808 153.41578729 65.40956688 157.21362686 C64.7287455 157.90072739 64.04792412 158.58782791 63.34647179 159.29574966 C61.88264583 160.77332211 60.41990639 162.25197163 58.95816612 163.73160744 C56.64010913 166.07653145 54.31750565 168.41686 51.99342918 170.75581741 C45.39068184 177.40109882 38.79071433 184.04906239 32.20693016 190.71313858 C28.16690665 194.80176668 24.11711286 198.88049333 20.06082726 202.95298576 C18.52304751 204.50063561 16.98892377 206.0519274 15.45862389 207.60697365 C13.31736586 209.78210409 11.16385678 211.94438024 9.00722313 214.10425186 C8.38465126 214.74277588 7.76207939 215.3812999 7.12064171 216.03917313 C1.72267467 221.4004794 -4.18681099 225.52328151 -12.041605 225.58984756 C-21.25693348 225.22960143 -28.55212986 220.92370216 -35.229105 214.77734756 C-42.05299688 207.35791602 -44.84415552 199.91826809 -44.85801125 189.88672256 C-43.3136305 181.9198481 -37.63772691 176.9052513 -32.041605 171.46484756 C-31.31586281 170.74426163 -30.59012062 170.02367569 -29.84238625 169.28125381 C-25.72254609 165.22016361 -21.48698566 161.34808507 -17.10898781 157.56836319 C-14.54709134 155.30794729 -12.17883409 152.90960025 -9.791605 150.46484756 C-6.12594529 146.74364756 -2.35992139 143.22800252 1.614645 139.83984756 C4.75128622 137.03091513 7.67758236 134.01664462 10.63319969 131.02051163 C13.91220435 127.71412489 17.30883019 124.62243076 20.84902 121.60156631 C23.94976492 118.87212909 26.8293741 115.92484093 29.708395 112.96484756 C28.28846951 109.73436008 26.57220114 107.58242269 24.0755825 105.10156631 C22.98890282 104.01778702 22.98890282 104.01778702 21.88027 102.91211319 C21.12230125 102.16639053 20.3643325 101.42066788 19.583395 100.65234756 C18.84862938 99.91822647 18.11386375 99.18410538 17.3568325 98.42773819 C13.24640962 94.34988028 9.03037501 90.46684036 4.64638329 86.68677139 C0.69400256 83.1750378 -2.94945762 79.34577699 -6.64707375 75.57031631 C-9.6919978 72.48709133 -12.76586277 69.50826676 -16.05332375 66.68359756 C-20.94029585 62.4645947 -25.54766599 57.96643853 -30.12973976 53.42187881 C-31.1171889 52.44603903 -32.10911145 51.47470632 -33.1053257 50.50781631 C-34.56936383 49.08663392 -36.01951828 47.65247943 -37.46738625 46.21484756 C-38.32243752 45.37437881 -39.17748878 44.53391006 -40.0584507 43.66797256 C-44.78625762 37.94519151 -45.85414571 32.27350139 -45.635355 24.95312881 C-44.60190906 15.9691954 -38.95664188 7.82898431 -32.08457375 2.13672256 C-21.77627201 -5.09840574 -10.8002393 -6.83160054 0 0 Z " fill="#5472FD" transform="translate(202.29160499572754,10.035152435302734)"/>
<path d="M0 0 C4.86498496 3.03824577 8.69500964 7.04584002 12.68753433 11.12829208 C13.64044811 12.08426075 14.5944816 13.03911437 15.54953384 13.99294662 C18.11848094 16.56470841 20.67184645 19.1514413 23.22267771 21.74115515 C25.90810698 24.46183303 28.60836073 27.1677173 31.30713272 29.87514877 C36.41415757 35.00281275 41.50873338 40.1426523 46.59848964 45.28745186 C54.05544355 52.82404328 61.52987944 60.34326531 69.00572395 67.86111259 C69.83184911 68.69190403 69.83184911 68.69190403 70.67466366 69.53947914 C71.7737132 70.64473635 72.87279357 71.7499629 73.97190559 72.85515797 C77.16982867 76.07164232 80.3637652 79.29201828 83.55413842 82.51599097 C85.54591889 84.52812272 87.53972552 86.53823914 89.5338707 88.54802704 C90.88431594 89.9105358 92.23204212 91.27573791 93.57965469 92.64104843 C97.92721172 97.01958479 102.33693874 101.24188874 107.03161812 105.24778557 C109.01533203 106.96286156 110.86749966 108.78436356 112.6831398 110.67565536 C111.39970593 113.49144549 110.06324242 115.54518927 107.87695694 117.72907639 C107.30519226 118.30503555 106.73342758 118.88099472 106.1443367 119.4744072 C105.51889465 120.09422974 104.89345261 120.71405228 104.24905777 121.35265732 C103.58861969 122.01499374 102.92818161 122.67733017 102.24773026 123.3597374 C100.06178606 125.54938747 97.86871925 127.73174901 95.6753273 129.91393661 C94.14998892 131.43808229 92.62502067 132.96259847 91.10040665 134.48746872 C87.90059978 137.6857107 84.69746021 140.88056405 81.49173355 144.07287216 C77.39803301 148.14964779 73.31088028 152.23290936 69.22601509 156.3185358 C66.07431717 159.4699606 62.92000994 162.61876278 59.76483917 165.76671028 C58.25808169 167.27030105 56.75191549 168.7744846 55.24636841 170.27928734 C53.13126768 172.39219949 51.01289293 174.50177459 48.89358902 176.61046982 C48.28029236 177.22421967 47.6669957 177.83796951 47.03511429 178.47031784 C43.33041723 182.14817455 39.50914235 185.63666982 35.54435635 189.03296947 C32.24839743 191.94194061 29.21199227 195.10454923 26.14798355 198.25378036 C24.74803733 199.67609292 23.34763316 201.09795484 21.94681168 202.51940536 C19.77433623 204.72905291 17.60513021 206.94158761 15.44363785 209.16198349 C13.33341661 211.32680202 11.21061018 213.47860532 9.08548355 215.62878036 C8.12738029 216.62255692 8.12738029 216.62255692 7.14992142 217.63640976 C2.56652578 222.24614135 -1.48337098 225.06864067 -8.05514145 226.10924911 C-19.05360078 226.12593873 -26.20195701 222.62301164 -34.11764145 215.04284286 C-40.5388561 208.13119797 -43.93673599 200.48647884 -43.6137352 190.92565536 C-42.14724416 179.81119695 -31.46305613 172.41365129 -23.46920395 165.61315536 C-20.16252007 162.63653975 -17.07487474 159.44179868 -13.99679184 156.23058701 C-12.8062912 155.00930308 -11.5651621 153.83779501 -10.3168602 152.67565536 C-9.6568602 152.67565536 -8.9968602 152.67565536 -8.3168602 152.67565536 C-8.3168602 152.01565536 -8.3168602 151.35565536 -8.3168602 150.67565536 C-6.88326645 149.26549911 -6.88326645 149.26549911 -4.8793602 147.61315536 C-1.70928803 144.92390543 1.26895505 142.14052159 4.1831398 139.17565536 C6.85068066 136.47182143 9.53773472 133.88310001 12.4331398 131.42565536 C16.97156088 127.54870456 21.11881585 123.29220146 25.29153824 119.03014755 C29.47877386 114.77783834 29.47877386 114.77783834 31.6831398 113.67565536 C30.33955348 110.59798228 28.97317826 108.83913395 26.3706398 106.73815536 C21.85103272 102.92653773 17.73117633 98.78435005 13.6037941 94.55871201 C10.788034 91.69848565 7.91676417 88.97802384 4.8706398 86.36315536 C-0.8092342 81.45509199 -5.98833801 76.04957919 -11.25045395 70.70299911 C-15.50611757 66.4059514 -19.82341311 62.28327193 -24.41012192 58.34215927 C-27.60190698 55.55251461 -30.61957884 52.59650615 -33.6293602 49.61315536 C-34.23586411 49.02727646 -34.84236801 48.44139755 -35.46725082 47.83776474 C-41.29152829 42.06474604 -43.81452298 36.69902757 -44.6293602 28.55065536 C-43.77329742 17.93547692 -38.94725181 10.85090081 -31.3168602 3.67565536 C-21.7383629 -4.10687369 -10.85454428 -5.65357763 0 0 Z " fill="#5372FD" transform="translate(76.31686019897461,10.324344635009766)"/>
<path d="M0 0 C0.66 0 1.32 0 2 0 C2.73999023 2.71728516 2.73999023 2.71728516 3 6 C1.46118164 8.33349609 1.46118164 8.33349609 -0.83984375 10.5234375 C-2.0628418 11.71259766 -2.0628418 11.71259766 -3.31054688 12.92578125 C-4.17744141 13.73402344 -5.04433594 14.54226562 -5.9375 15.375 C-6.80052734 16.20644531 -7.66355469 17.03789062 -8.55273438 17.89453125 C-10.68699632 19.94625268 -12.83582384 21.97993333 -15 24 C-15.66 22.68 -16.32 21.36 -17 20 C-16.34 20 -15.68 20 -15 20 C-15.33 17.36 -15.66 14.72 -16 12 C-12.06329512 10.68776504 -9.87511856 11.75703744 -6 13 C-6 11.68 -6 10.36 -6 9 C-6.66 9 -7.32 9 -8 9 C-7.67 7.68 -7.34 6.36 -7 5 C-5.68 5 -4.36 5 -3 5 C-2.67 4.01 -2.34 3.02 -2 2 C-1.67 2.99 -1.34 3.98 -1 5 C-0.34 5 0.32 5 1 5 C0.67 3.35 0.34 1.7 0 0 Z " fill="#6882F6" transform="translate(154,149)"/>
<path d="M0 0 C1.13199353 0.9080162 2.25532363 1.82683826 3.375 2.75 C4.00148437 3.26046875 4.62796875 3.7709375 5.2734375 4.296875 C7 6 7 6 9 10 C6.03 12.97 3.06 15.94 0 19 C-0.66 17.68 -1.32 16.36 -2 15 C-1.01 13.68 -0.02 12.36 1 11 C-0.98 7.535 -0.98 7.535 -3 4 C-2.34 3.67 -1.68 3.34 -1 3 C-0.67 2.01 -0.34 1.02 0 0 Z " fill="#7087F4" transform="translate(180,113)"/>
<path d="M0 0 C5.43733055 4.52991796 10.46458931 9.34294216 15.4375 14.375 C16.16904297 15.11105469 16.90058594 15.84710938 17.65429688 16.60546875 C19.43852723 18.40136074 21.22036124 20.19955985 23 22 C22.34 22.66 21.68 23.32 21 24 C19.5 22.625 19.5 22.625 18 21 C18 20.34 18 19.68 18 19 C17.40832031 18.90847656 16.81664062 18.81695312 16.20703125 18.72265625 C13.45397441 17.82121286 12.51407536 16.66513725 10.6875 14.4375 C10.09195313 13.72207031 9.49640625 13.00664063 8.8828125 12.26953125 C8.26148437 11.52058594 7.64015625 10.77164063 7 10 C5.10077037 7.88276542 3.19526697 5.77148136 1.28515625 3.6640625 C0 2 0 2 0 0 Z " fill="#768DEC" transform="translate(115,49)"/>
<path d="M0 0 C2.67453137 1.77661868 4.46944373 3.73068463 6.17578125 6.4453125 C5.18578125 6.4453125 4.19578125 6.4453125 3.17578125 6.4453125 C2.84578125 5.4553125 2.51578125 4.4653125 2.17578125 3.4453125 C1.18578125 3.1153125 0.19578125 2.7853125 -0.82421875 2.4453125 C-2.82421875 1.77864583 -4.82421875 1.11197917 -6.82421875 0.4453125 C-6.82421875 -0.2146875 -6.82421875 -0.8746875 -6.82421875 -1.5546875 C-8.24124388 -1.41237942 -9.65782835 -1.26568004 -11.07421875 -1.1171875 C-11.863125 -1.03597656 -12.65203125 -0.95476563 -13.46484375 -0.87109375 C-15.64786514 -0.57833757 -17.70153695 -0.13404331 -19.82421875 0.4453125 C-20.15421875 -0.5446875 -20.48421875 -1.5346875 -20.82421875 -2.5546875 C-12.99022572 -4.69761833 -7.1511022 -3.89251286 0 0 Z " fill="#8697F0" transform="translate(76.82421875,10.5546875)"/>
<path d="M0 0 C5.43647875 2.30638492 9.66481672 5.0827426 13 10 C12.01 10.495 12.01 10.495 11 11 C11 10.34 11 9.68 11 9 C9.35 8.34 7.7 7.68 6 7 C6 6.34 6 5.68 6 5 C-0.83782175 2.5579208 -7.79431807 2.37977242 -15 2 C-10.14834972 -0.79816109 -5.46096748 -0.83571534 0 0 Z " fill="#8494EB" transform="translate(195,6)"/>
<path d="M0 0 C0.66 0 1.32 0 2 0 C1.67 1.32 1.34 2.64 1 4 C0.34 4 -0.32 4 -1 4 C-1.20625 4.53625 -1.4125 5.0725 -1.625 5.625 C-4.27833873 10.20803962 -7.45609508 13.3710017 -12.375 15.375 C-13.24125 15.58125 -14.1075 15.7875 -15 16 C-6.42585551 5.75285171 -6.42585551 5.75285171 -2 2 C-1.34 2 -0.68 2 0 2 C0 1.34 0 0.68 0 0 Z " fill="#8194EE" transform="translate(68,161)"/>
<path d="M0 0 C0.66 0.33 1.32 0.66 2 1 C1.54625 1.391875 1.0925 1.78375 0.625 2.1875 C-1.17015554 3.95207199 -1.17015554 3.95207199 -1.875 6.5625 C-3.35211007 9.76290514 -4.79851763 9.79944411 -8 11 C-8.33 11.680625 -8.66 12.36125 -9 13.0625 C-9.33 13.701875 -9.66 14.34125 -10 15 C-12.625 15.75 -12.625 15.75 -15 16 C-10.30233025 10.33870569 -5.25276628 5.14771096 0 0 Z " fill="#7F93EB" transform="translate(198,155)"/>
<path d="M0 0 C1.65 0 3.3 0 5 0 C3.41379873 3.87939509 0.90079013 6.33361087 -2.0625 9.25 C-2.96097656 10.14203125 -3.85945313 11.0340625 -4.78515625 11.953125 C-7 14 -7 14 -8 14 C-8 12.35 -8 10.7 -8 9 C-7.01 8.67 -6.02 8.34 -5 8 C-4.26676204 5.98491642 -4.26676204 5.98491642 -4 4 C-2.68 4 -1.36 4 0 4 C0 2.68 0 1.36 0 0 Z " fill="#7E93EF" transform="translate(293,136)"/>
<path d="M0 0 C0 4.49380247 -1.67246493 8.46822876 -4.625 11.875 C-6.81947159 15.26645609 -6.75435305 19.03576639 -7 23 C-7.33 23 -7.66 23 -8 23 C-8.44694888 15.43911484 -8.63086442 10.17448589 -4 4 C-1.75 1.5625 -1.75 1.5625 0 0 Z " fill="#7D92EF" transform="translate(166,186)"/>
<path d="M0 0 C2.125 0.375 2.125 0.375 4 1 C4 1.66 4 2.32 4 3 C0.19471609 4.76274181 -2.8160526 5.27134667 -7 5.25 C-8.5159375 5.25773438 -8.5159375 5.25773438 -10.0625 5.265625 C-13.0703976 4.99363426 -15.27306793 4.26321118 -18 3 C-13.57859182 1.62231484 -9.25901566 2.02020123 -4.6796875 2.16015625 C-1.84580291 2.2882436 -1.84580291 2.2882436 0 0 Z " fill="#8295EA" transform="translate(197,230)"/>
<path d="M0 0 C5.66129431 4.69766975 10.85228904 9.74723372 16 15 C15.01 15.495 15.01 15.495 14 16 C13.01 15.67 12.02 15.34 11 15 C11 14.01 11 13.02 11 12 C10.01 12.33 9.02 12.66 8 13 C7.9175 12.21625 7.835 11.4325 7.75 10.625 C7.29719002 7.87895793 7.29719002 7.87895793 5.125 6.9375 C4.073125 6.4734375 4.073125 6.4734375 3 6 C0 2.57142857 0 2.57142857 0 0 Z " fill="#677FEC" transform="translate(154,88)"/>
<path d="M0 0 C5.66129431 4.69766975 10.85228904 9.74723372 16 15 C15.34 15.66 14.68 16.32 14 17 C12.87825351 15.87825351 11.75754684 14.75545673 10.640625 13.62890625 C9.41605095 12.41307916 8.17342939 11.2153794 6.921875 10.02734375 C5.84679687 8.99287109 5.84679687 8.99287109 4.75 7.9375 C3.72132813 6.96103516 3.72132813 6.96103516 2.671875 5.96484375 C0.93164751 3.91966985 0.39722943 2.62288259 0 0 Z " fill="#7A91EC" transform="translate(271,79)"/>
<path d="M0 0 C5.66129431 4.69766975 10.85228904 9.74723372 16 15 C15.34 15.66 14.68 16.32 14 17 C11.84475774 14.92569173 9.70098609 12.84146179 7.5625 10.75 C6.64500977 9.87021484 6.64500977 9.87021484 5.70898438 8.97265625 C5.12568359 8.39902344 4.54238281 7.82539062 3.94140625 7.234375 C3.40201416 6.71069336 2.86262207 6.18701172 2.30688477 5.64746094 C0.82879242 3.78417546 0.40834789 2.32206478 0 0 Z " fill="#8298EB" transform="translate(249,57)"/>
<path d="M0 0 C0.99 0.99 1.98 1.98 3 3 C2.360625 3.598125 1.72125 4.19625 1.0625 4.8125 C-1.20310389 6.90810337 -1.20310389 6.90810337 -2 10 C-5.0625 11.1875 -5.0625 11.1875 -8 12 C-5.85215638 7.53909402 -3.70958649 3.35629254 0 0 Z " fill="#5272F6" transform="translate(172,180)"/>
<path d="M0 0 C0.33 0.99 0.66 1.98 1 3 C0.50628906 3.40992188 0.01257813 3.81984375 -0.49609375 4.2421875 C-1.13675781 4.78101563 -1.77742188 5.31984375 -2.4375 5.875 C-3.07558594 6.40867188 -3.71367188 6.94234375 -4.37109375 7.4921875 C-6.10805004 8.9222757 -6.10805004 8.9222757 -7 11 C-8.97888961 11.72693904 -10.97954558 12.39816251 -13 13 C-9.0580583 8.11950075 -4.88049925 3.9419417 0 0 Z " fill="#8397EC" transform="translate(87,144)"/>
<path d="M0 0 C-0.93274109 1.12894876 -1.87140122 2.25300876 -2.8125 3.375 C-3.33457031 4.00148437 -3.85664062 4.62796875 -4.39453125 5.2734375 C-6 7 -6 7 -9 9 C-9.33 7.68 -9.66 6.36 -10 5 C-9.01 4.67 -8.02 4.34 -7 4 C-7 3.01 -7 2.02 -7 1 C-4.53721199 -0.231394 -2.7204945 -0.07159196 0 0 Z " fill="#8397F2" transform="translate(131,180)"/>
<path d="M0 0 C0 2.33333333 0 4.66666667 0 7 C-1.28650706 7.69710731 -2.57940665 8.38242876 -3.875 9.0625 C-4.59429687 9.44535156 -5.31359375 9.82820312 -6.0546875 10.22265625 C-6.69664062 10.47917969 -7.33859375 10.73570312 -8 11 C-8.66 10.67 -9.32 10.34 -10 10 C-6.7 6.7 -3.4 3.4 0 0 Z " fill="#7F92ED" transform="translate(213,141)"/>
<path d="M0 0 C4.47400242 -0.36275695 4.47400242 -0.36275695 6.8125 1.25 C8 3 8 3 8 7 C8.66 7.33 9.32 7.66 10 8 C7 8 7 8 5.17578125 6.50390625 C4.56089844 5.86324219 3.94601563 5.22257812 3.3125 4.5625 C2.68988281 3.92441406 2.06726563 3.28632812 1.42578125 2.62890625 C0 1 0 1 0 0 Z " fill="#7A93F2" transform="translate(67,82)"/>
<path d="M0 0 C0.66 0.33 1.32 0.66 2 1 C-1.11243347 5.66865021 -5.80290316 6.30792196 -11 8 C-7.6378363 4.34117479 -4.63949148 1.85579659 0 0 Z " fill="#8598ED" transform="translate(54,9)"/>
<path d="M0 0 C2.31 0.33 4.62 0.66 7 1 C5.35 2.98 3.7 4.96 2 7 C1.67 6.01 1.34 5.02 1 4 C0.34 4 -0.32 4 -1 4 C-0.67 2.68 -0.34 1.36 0 0 Z " fill="#758CF5" transform="translate(131,172)"/>
<path d="M0 0 C1.17539996 0.92652701 2.34010577 1.86663387 3.5 2.8125 C4.1496875 3.33457031 4.799375 3.85664062 5.46875 4.39453125 C7 6 7 6 7 9 C6.236875 8.67 5.47375 8.34 4.6875 8 C2.00930865 6.82563314 2.00930865 6.82563314 -1 7 C-0.67 4.69 -0.34 2.38 0 0 Z " fill="#6983F1" transform="translate(138,72)"/>
<path d="M0 0 C0.75732422 0.00966797 1.51464844 0.01933594 2.29492188 0.02929688 C3.08060547 0.05443359 3.86628906 0.07957031 4.67578125 0.10546875 C5.87170898 0.12577148 5.87170898 0.12577148 7.09179688 0.14648438 C9.05758092 0.18179786 11.02301707 0.23560428 12.98828125 0.29296875 C12.98828125 0.62296875 12.98828125 0.95296875 12.98828125 1.29296875 C11.97507813 1.38384766 11.97507813 1.38384766 10.94140625 1.4765625 C10.049375 1.56035156 9.15734375 1.64414063 8.23828125 1.73046875 C7.3565625 1.81167969 6.47484375 1.89289062 5.56640625 1.9765625 C3.29079435 2.25584214 1.2060855 2.73851769 -1.01171875 3.29296875 C-3.01134903 3.33142318 -5.01223508 3.33841156 -7.01171875 3.29296875 C-4.74810376 0.60821609 -3.50571314 -0.07907624 0 0 Z " fill="#687FF2" transform="translate(181.01171875,7.70703125)"/>
<path d="M0 0 C0 4.09939665 -1.52298101 5.78656995 -4 9 C-6.625 10.9375 -6.625 10.9375 -9 12 C-9.66 11.67 -10.32 11.34 -11 11 C-7.37 7.37 -3.74 3.74 0 0 Z " fill="#8CA0ED" transform="translate(103,128)"/>
<path d="M0 0 C1.4535556 2.90711121 0.71133997 4.89597103 0 8 C-0.66 8.66 -1.32 9.32 -2 10 C-2.33 10.99 -2.66 11.98 -3 13 C-3.66 12.67 -4.32 12.34 -5 12 C-4.42365861 7.24518354 -2.44931479 4.02951788 0 0 Z " fill="#7C90EF" transform="translate(163,20)"/>
<path d="M0 0 C0.99 0 1.98 0 3 0 C2.45773019 3.79588866 0.79872437 5.47211993 -2 8 C-2.99 7.67 -3.98 7.34 -5 7 C-5 6.01 -5 5.02 -5 4 C-3.35 4 -1.7 4 0 4 C0 2.68 0 1.36 0 0 Z " fill="#728AED" transform="translate(80,225)"/>
<path d="M0 0 C1.98 0.99 1.98 0.99 4 2 C4 3.32 4 4.64 4 6 C4.99 6.33 5.98 6.66 7 7 C7.33 7.99 7.66 8.98 8 10 C7.01 10 6.02 10 5 10 C3.61328125 8.3203125 3.61328125 8.3203125 2.3125 6.125 C1.87550781 5.40570313 1.43851563 4.68640625 0.98828125 3.9453125 C0 2 0 2 0 0 Z " fill="#899CEC" transform="translate(35,213)"/>
<path d="M0 0 C7.48291572 6.15034169 7.48291572 6.15034169 10 10 C7 10 7 10 5.17578125 8.3203125 C4.56089844 7.59585938 3.94601562 6.87140625 3.3125 6.125 C2.68988281 5.40570313 2.06726563 4.68640625 1.42578125 3.9453125 C0 2 0 2 0 0 Z " fill="#788EEE" transform="translate(287,95)"/>
<path d="M0 0 C7.48291572 6.15034169 7.48291572 6.15034169 10 10 C7 10 7 10 5.17578125 8.3203125 C4.56089844 7.59585938 3.94601563 6.87140625 3.3125 6.125 C2.68988281 5.40570312 2.06726563 4.68640625 1.42578125 3.9453125 C0 2 0 2 0 0 Z " fill="#8094EC" transform="translate(91,25)"/>
<path d="M0 0 C5.27203646 -0.27036084 9.92523206 0.73694665 15 2 C15 2.33 15 2.66 15 3 C13.25008666 3.02715383 11.50005055 3.04646551 9.75 3.0625 C8.28820312 3.07990234 8.28820312 3.07990234 6.796875 3.09765625 C4.34241322 3.01195577 2.33831086 2.70706066 0 2 C0 1.34 0 0.68 0 0 Z " fill="#7F91ED" transform="translate(56,233)"/>
<path d="M0 0 C2.64 0 5.28 0 8 0 C8 1.65 8 3.3 8 5 C4.62496331 3.8141763 2.35277269 2.72426311 0 0 Z " fill="#7A90ED" transform="translate(46,228)"/>
<path d="M0 0 C0.99 0.66 1.98 1.32 3 2 C1.60667426 5.36720387 0.0210714 6.9859524 -3 9 C-3 7.68 -3 6.36 -3 5 C-2.34 5 -1.68 5 -1 5 C-0.67 3.35 -0.34 1.7 0 0 Z " fill="#6C85EE" transform="translate(252,176)"/>
<path d="M0 0 C1.98 0.495 1.98 0.495 4 1 C4 2.32 4 3.64 4 5 C4.66 5.33 5.32 5.66 6 6 C5 7 5 7 1.9375 7.0625 C0.4834375 7.0315625 0.4834375 7.0315625 -1 7 C-0.649375 6.21625 -0.29875 5.4325 0.0625 4.625 C0.371875 3.75875 0.68125 2.8925 1 2 C0.67 1.34 0.34 0.68 0 0 Z " fill="#8499F1" transform="translate(231,119)"/>
<path d="M0 0 C2.475 0.99 2.475 0.99 5 2 C5 2.66 5 3.32 5 4 C5.99 3.67 6.98 3.34 8 3 C7.67 4.65 7.34 6.3 7 8 C5.8274869 7.04882866 4.66212985 6.08882991 3.5 5.125 C2.8503125 4.59132813 2.200625 4.05765625 1.53125 3.5078125 C1.0259375 3.01023438 0.520625 2.51265625 0 2 C0 1.34 0 0.68 0 0 Z " fill="#7189ED" transform="translate(166,55)"/>
<path d="M0 0 C7.57142857 4 7.57142857 4 10 8 C9.01 8.495 9.01 8.495 8 9 C8 8.34 8 7.68 8 7 C5.525 6.01 5.525 6.01 3 5 C3 4.34 3 3.68 3 3 C2.01 2.67 1.02 2.34 0 2 C0 1.34 0 0.68 0 0 Z " fill="#8B9EED" transform="translate(198,8)"/>
<path d="M0 0 C0.66 0.33 1.32 0.66 2 1 C-0.10515339 4.72450216 -1.24267224 6.6795921 -5.25 8.375 C-6.61125 8.684375 -6.61125 8.684375 -8 9 C-7.04270084 7.87411986 -6.08412105 6.7493285 -5.125 5.625 C-4.59132812 4.99851563 -4.05765625 4.37203125 -3.5078125 3.7265625 C-2.38567993 2.44163349 -1.20628025 1.20628025 0 0 Z " fill="#95A7F1" transform="translate(47,181)"/>
<path d="M0 0 C-0.99 0.495 -0.99 0.495 -2 1 C-1.34 2.32 -0.68 3.64 0 5 C-0.99 5 -1.98 5 -3 5 C-5.1875 2.5 -5.1875 2.5 -7 0 C-3.98968256 -0.93423645 -3.13349732 -1.04449911 0 0 Z " fill="#6B84F2" transform="translate(68,76)"/>
<path d="M0 0 C0.99 0.33 1.98 0.66 3 1 C1.60667426 4.36720387 0.0210714 5.9859524 -3 8 C-3.33 6.35 -3.66 4.7 -4 3 C-2.68 3.33 -1.36 3.66 0 4 C0 2.68 0 1.36 0 0 Z " fill="#8198ED" transform="translate(212,217)"/>
<path d="M0 0 C1.32 0.99 2.64 1.98 4 3 C3.67 4.32 3.34 5.64 3 7 C2.01 7 1.02 7 0 7 C0 4.69 0 2.38 0 0 Z " fill="#7A8FE9" transform="translate(309,117)"/>
<path d="M0 0 C0.66 0.33 1.32 0.66 2 1 C1.34 2.65 0.68 4.3 0 6 C-1.65 6 -3.3 6 -5 6 C-3.35 4.02 -1.7 2.04 0 0 Z " fill="#7F94F0" transform="translate(109,122)"/>
<path d="M0 0 C1.14926266 0.95421808 2.29430541 1.91352045 3.4375 2.875 C4.07558594 3.40867187 4.71367187 3.94234375 5.37109375 4.4921875 C7 6 7 6 8 8 C4.82461668 7.65978036 3.97723135 6.97533396 1.75 4.5625 C0 2 0 2 0 0 Z " fill="#6F87E7" transform="translate(154,88)"/>
<path d="M0 0 C0.33 0 0.66 0 1 0 C1 1.65 1 3.3 1 5 C0.01 5.33 -0.98 5.66 -2 6 C-2 6.66 -2 7.32 -2 8 C-2.66 8 -3.32 8 -4 8 C-2.87548273 5.0280615 -1.77706209 2.66559313 0 0 Z " fill="#8297EB" transform="translate(38,190)"/>
<path d="M0 0 C1.98 0.66 3.96 1.32 6 2 C6.33 3.65 6.66 5.3 7 7 C5.83040013 6.02433888 4.66438823 5.044375 3.5 4.0625 C2.8503125 3.51722656 2.200625 2.97195312 1.53125 2.41015625 C1.0259375 1.94480469 0.520625 1.47945313 0 1 C0 0.67 0 0.34 0 0 Z " fill="#8EA2EB" transform="translate(94,108)"/>
<path d="M0 0 C2.9719385 1.12451727 5.33440687 2.22293791 8 4 C7.67 4.99 7.34 5.98 7 7 C5.83040013 6.02433888 4.66438823 5.044375 3.5 4.0625 C2.8503125 3.51722656 2.200625 2.97195312 1.53125 2.41015625 C1.0259375 1.94480469 0.520625 1.47945313 0 1 C0 0.67 0 0.34 0 0 Z " fill="#7F90EA" transform="translate(87,101)"/>
<path d="M0 0 C1.32 0.33 2.64 0.66 4 1 C4.33 2.98 4.66 4.96 5 7 C2.5 5.1875 2.5 5.1875 0 3 C0 2.01 0 1.02 0 0 Z " fill="#738AEB" transform="translate(160,48)"/>
<path d="M0 0 C0.33 0.66 0.66 1.32 1 2 C1.66 2 2.32 2 3 2 C2.67 2.99 2.34 3.98 2 5 C2 4.34 2 3.68 2 3 C1.566875 3.495 1.13375 3.99 0.6875 4.5 C-1 6 -1 6 -4 6 C-2.84826645 3.53199953 -1.95216435 1.95216435 0 0 Z " fill="#7990EF" transform="translate(42,17)"/>
<path d="M0 0 C1.98 0.495 1.98 0.495 4 1 C2.25 4.875 2.25 4.875 0 6 C-1.125 2.25 -1.125 2.25 0 0 Z " fill="#6B84EF" transform="translate(242,186)"/>
<path d="M0 0 C3.91402949 1.26941497 5.79072873 2.51167694 8 6 C5 6 5 6 3.61328125 4.6875 C2.40885417 3.125 1.20442708 1.5625 0 0 Z " fill="#8193EB" transform="translate(193,82)"/>
<path d="M0 0 C0.99 0.99 1.98 1.98 3 3 C1.03533587 4.06775224 -0.96855359 5.06553465 -3 6 C-3.66 5.67 -4.32 5.34 -5 5 C-3.35 3.35 -1.7 1.7 0 0 Z " fill="#7F92F1" transform="translate(172,180)"/>
<path d="M0 0 C0.99 0.66 1.98 1.32 3 2 C0.03 4.475 0.03 4.475 -3 7 C-3 5.35 -3 3.7 -3 2 C-2.01 2.33 -1.02 2.66 0 3 C0 2.01 0 1.02 0 0 Z " fill="#677FE9" transform="translate(276,154)"/>
<path d="M0 0 C-1.36983503 3.16115776 -1.9890638 3.9927092 -5 6 C-5 4.35 -5 2.7 -5 1 C-2 0 -2 0 0 0 Z " fill="#8EA1EA" transform="translate(290,144)"/>
<path d="M0 0 C-1.36983503 3.16115776 -1.9890638 3.9927092 -5 6 C-5 4.35 -5 2.7 -5 1 C-2 0 -2 0 0 0 Z " fill="#879AEA" transform="translate(306,128)"/>
</svg>
